<svg width="39" height="17" fill="none" xmlns="http://www.w3.org/2000/svg"><path d="M753 17c-6.042 0-9.197-3.4-11.748-6.135-2.282-2.439-3.961-4.213-7.518-4.213-3.625 0-5.237 1.774-7.519 4.213C723.664 13.6 720.509 17 714.467 17c-6.042 0-9.197-3.4-11.748-6.135-2.282-2.439-3.96-4.213-7.518-4.213s-5.236 1.774-7.519 4.213C685.131 13.6 681.976 17 675.934 17c-6.042 0-9.197-3.4-11.748-6.135-2.282-2.439-3.96-4.213-7.518-4.213-3.625 0-5.236 1.774-7.519 4.213C646.598 13.6 643.443 17 637.401 17c-6.041 0-9.196-3.4-11.747-6.135-2.283-2.439-3.961-4.213-7.519-4.213-3.625 0-5.236 1.774-7.519 4.213C607.797 13.6 604.642 17 598.6 17s-9.197-3.4-11.748-6.135c-2.282-2.439-3.961-4.213-7.518-4.213-3.625 0-5.237 1.774-7.519 4.213C569.264 13.6 566.109 17 560.067 17c-6.042 0-9.197-3.4-11.748-6.135-2.282-2.439-3.96-4.213-7.518-4.213-3.625 0-5.236 1.774-7.519 4.213C530.597 13.6 527.442 17 521.4 17s-9.197-3.4-11.748-6.135c-2.282-2.439-3.961-4.213-7.518-4.213-3.625 0-5.237 1.774-7.519 4.213C492.064 13.6 488.909 17 482.867 17c-6.042 0-9.197-3.4-11.748-6.135-2.282-2.439-3.96-4.213-7.518-4.213s-5.236 1.774-7.519 4.213C453.464 13.6 450.242 17 444.2 17s-9.197-3.4-11.748-6.135c-2.282-2.439-3.961-4.213-7.518-4.213-3.625 0-5.237 1.774-7.519 4.213C414.864 13.6 411.709 17 405.667 17c-6.042 0-9.197-3.4-11.748-6.135-2.282-2.439-3.96-4.213-7.518-4.213-3.625 0-5.236 1.774-7.519 4.213C376.331 13.6 373.176 17 367.134 17c-6.041 0-9.197-3.4-11.748-6.135-2.282-2.439-3.96-4.213-7.518-4.213s-5.236 1.774-7.519 4.213C337.798 13.6 334.643 17 328.601 17c-6.041 0-9.196-3.4-11.747-6.135-2.283-2.439-3.961-4.213-7.519-4.213-3.625 0-5.236 1.774-7.519 4.213C299.265 13.6 296.11 17 290.069 17c-6.042 0-9.197-3.4-11.748-6.135-2.283-2.439-3.961-4.213-7.519-4.213-3.625 0-5.236 1.774-7.519 4.213C260.733 13.6 257.577 17 251.536 17c-6.042 0-9.197-3.4-11.748-6.135-2.283-2.439-3.961-4.213-7.519-4.213-3.625 0-5.236 1.774-7.518 4.213C222.2 13.6 219.045 17 213.003 17c-6.042 0-9.197-3.4-11.748-6.135-2.282-2.439-3.961-4.213-7.519-4.213-3.558 0-5.236 1.774-7.518 4.213C183.667 13.6 180.512 17 174.47 17c-6.042 0-9.197-3.4-11.748-6.135-2.282-2.439-3.961-4.213-7.519-4.213-3.625 0-5.236 1.774-7.518 4.213C145.134 13.6 141.979 17 135.937 17c-6.042 0-9.197-3.4-11.748-6.135-2.282-2.439-3.96-4.213-7.518-4.213-3.625 0-5.237 1.774-7.519 4.213C106.601 13.6 103.446 17 97.404 17c-6.042 0-9.197-3.4-11.748-6.135-2.282-2.439-3.96-4.213-7.518-4.213-3.625 0-5.236 1.774-7.519 4.213C67.464 13.6 64.242 17 58.2 17c-6.042 0-9.197-3.4-11.748-6.135-2.282-2.439-3.96-4.213-7.518-4.213-3.625 0-5.237 1.774-7.519 4.213C28.864 13.6 25.709 17 19.667 17c-6.042 0-9.197-3.4-11.748-6.135C5.57 8.426 3.891 6.652.334 6.652c-3.625 0-5.237 1.774-7.519 4.213C-9.803 13.6-12.958 17-19 17v-6.652c3.625 0 5.236-1.774 7.519-4.213C-8.931 3.4-5.775 0 .334 0 6.375 0 9.53 3.4 12.08 6.135c2.283 2.439 3.961 4.213 7.519 4.213 3.625 0 5.236-1.774 7.519-4.213C29.669 3.4 32.892 0 38.934 0c6.041 0 9.196 3.4 11.747 6.135 2.283 2.439 3.961 4.213 7.519 4.213 3.625 0 5.236-1.774 7.519-4.213C68.269 3.4 71.425 0 77.466 0c6.042 0 9.197 3.4 11.748 6.135 2.283 2.439 3.961 4.213 7.519 4.213 3.625 0 5.236-1.774 7.518-4.213C106.802 3.4 109.958 0 115.999 0c6.042 0 9.197 3.4 11.748 6.135 2.283 2.439 3.961 4.213 7.519 4.213 3.625 0 5.236-1.774 7.518-4.213C145.335 3.4 148.49 0 154.532 0c6.042 0 9.197 3.4 11.748 6.135 2.282 2.439 3.961 4.213 7.519 4.213 3.625 0 5.236-1.774 7.518-4.213C183.868 3.4 187.023 0 193.065 0c6.042 0 9.197 3.4 11.748 6.135 2.282 2.439 3.961 4.213 7.518 4.213 3.626 0 5.237-1.774 7.519-4.213C222.401 3.4 225.556 0 231.598 0c6.042 0 9.197 3.4 11.748 6.135 2.282 2.439 3.96 4.213 7.518 4.213s5.237-1.774 7.519-4.213C260.934 3.4 264.089 0 270.131 0c6.042 0 9.197 3.4 11.748 6.135 2.282 2.439 3.96 4.213 7.518 4.213 3.625 0 5.236-1.774 7.519-4.213C299.467 3.4 302.622 0 308.664 0c6.041 0 9.197 3.4 11.747 6.135 2.283 2.439 3.961 4.213 7.519 4.213 3.625 0 5.236-1.774 7.519-4.213C338 3.4 341.155 0 347.197 0c6.041 0 9.196 3.4 11.747 6.135 2.283 2.439 3.961 4.213 7.519 4.213 3.625 0 5.236-1.774 7.519-4.213C376.533 3.4 379.688 0 385.729 0c6.042 0 9.197 3.4 11.748 6.135 2.283 2.439 3.961 4.213 7.519 4.213 3.625 0 5.236-1.774 7.518-4.213C415.065 3.4 418.22 0 424.262 0c6.042 0 9.197 3.4 11.748 6.135 2.283 2.439 3.961 4.213 7.519 4.213 3.625 0 5.236-1.774 7.518-4.213C453.598 3.4 456.753 0 462.795 0c6.042 0 9.197 3.4 11.748 6.135 2.282 2.439 3.961 4.213 7.519 4.213 3.625 0 5.236-1.774 7.518-4.213C492.131 3.4 495.286 0 501.328 0c6.042 0 9.197 3.4 11.748 6.135 2.282 2.439 3.961 4.213 7.518 4.213 3.625 0 5.237-1.774 7.519-4.213C531.47 3.4 534.625 0 540.734 0c6.041 0 9.196 3.4 11.747 6.135 2.283 2.439 3.961 4.213 7.519 4.213 3.558 0 5.236-1.774 7.519-4.213C570.07 3.4 573.225 0 579.266 0c6.042 0 9.197 3.4 11.748 6.135 2.283 2.439 3.961 4.213 7.519 4.213 3.558 0 5.236-1.774 7.518-4.213C608.67 3.4 611.825 0 617.934 0c6.108 0 9.196 3.4 11.747 6.135 2.283 2.439 3.961 4.213 7.519 4.213 3.558 0 5.236-1.774 7.519-4.213C647.27 3.4 650.425 0 656.466 0c6.042 0 9.197 3.4 11.748 6.135 2.283 2.439 3.961 4.213 7.519 4.213 3.625 0 5.236-1.774 7.518-4.213C685.802 3.4 688.958 0 694.999 0c6.042 0 9.197 3.4 11.748 6.135 2.283 2.439 3.961 4.213 7.519 4.213 3.558 0 5.236-1.774 7.518-4.213C724.335 3.4 727.49 0 733.532 0c6.042 0 9.197 3.4 11.748 6.135 2.282 2.439 3.961 4.213 7.519 4.213V17H753Z" fill="#F1F1F1"/></svg>