<svg width="62" height="34" fill="none" xmlns="http://www.w3.org/2000/svg"><path d="M1093.8 0c-15.65 0-15.65 14-31.19 14-15.54 0-15.65-14-31.2-14-15.54 0-15.65 14-31.19 14-15.655 0-15.655-14-31.307-14s-15.652 14-31.196 14c-15.652 0-15.652-14-31.195-14-15.652 0-15.652 14-31.196 14-15.543 0-15.978-14-31.522-14-15.652 0-15.652 14-31.195 14-15.544 0-15.761-14-31.305-14-15.652 0-15.652 14-31.195 14-15.653 0-15.653-14-31.305-14s-15.652 14-31.195 14c-15.653 0-15.652-14-31.196-14C640.87 0 640.652 14 625 14c-15.652 0-15.652-14-31.196-14-15.652 0-15.652 14-31.195 14-15.653 0-15.653-14-31.305-14s-15.652 14-31.195 14c-15.653 0-15.652-14-31.196-14-15.652 0-15.652 14-31.196 14-15.652 0-15.652-14-31.195-14-15.652 0-15.652 14-31.305 14-15.652 0-15.652-14-31.304-14s-15.652 14-31.304 14-15.653-14-31.305-14S265.652 14 250 14 234.348 0 218.696 0c-15.653 0-15.653 14-31.305 14S171.739 0 156.087 0s-15.652 14-31.196 14c-15.652 0-15.652-14-31.304-14S77.935 14 62.283 14C46.63 14 46.63 0 30.978 0S15.326 14-.326 14-15.978 0-31.63 0C-46.848 0-46.848 14-62.5 14-78.152 14-78.152 0-93.696 0-109.239 0-109.348 14-125 14v20h1250V14c-15.65 0-15.65-14-31.2-14Z" fill="#fff"/></svg>