<svg width="38" height="24" fill="none" xmlns="http://www.w3.org/2000/svg"><path d="M711.784 0c-9.642 0-9.642 9.882-19.217 9.882S682.925 0 673.35 0c-9.574 0-9.641 9.882-19.216 9.882-9.642 0-9.642-9.882-19.284-9.882-9.641 0-9.641 9.882-19.216 9.882-9.642 0-9.642-9.882-19.217-9.882-9.641 0-9.641 9.882-19.216 9.882-9.575 0-9.843-9.882-19.418-9.882-9.641 0-9.641 9.882-19.216 9.882-9.575 0-9.709-9.882-19.284-9.882-9.641 0-9.641 9.882-19.216 9.882-9.642 0-9.642-9.882-19.284-9.882-9.641 0-9.641 9.882-19.216 9.882-9.642 0-9.642-9.882-19.217-9.882-9.574 0-9.708 9.882-19.35 9.882-9.642 0-9.642-9.882-19.217-9.882-9.641 0-9.641 9.882-19.216 9.882-9.642 0-9.642-9.882-19.284-9.882-9.641 0-9.641 9.882-19.216 9.882-9.642 0-9.642-9.882-19.217-9.882-9.641 0-9.641 9.882-19.216 9.882-9.642 0-9.642-9.882-19.217-9.882-9.641 0-9.641 9.882-19.283 9.882-9.642 0-9.642-9.882-19.284-9.882-9.641 0-9.641 9.882-19.283 9.882-9.642 0-9.642-9.882-19.284-9.882-9.641 0-9.641 9.882-19.283 9.882-9.642 0-9.642-9.882-19.283-9.882-9.642 0-9.642 9.882-19.284 9.882S143.791 0 134.15 0c-9.642 0-9.642 9.882-19.217 9.882C105.291 9.882 105.291 0 95.65 0c-9.642 0-9.642 9.882-19.284 9.882S66.724 0 57.083 0C47.44 0 47.44 9.882 37.799 9.882S28.157 0 18.516 0C9.142 0 9.142 9.882-.5 9.882-10.142 9.882-10.142 0-19.716 0-29.291 0-29.358 9.882-39 9.882V24h770V9.882c-9.642 0-9.642-9.882-19.216-9.882Z" fill="#fff"/></svg>